HIERARCHY
ROOT Hips
{
	OFFSET 52.959099 -13.367516 94.020798
	CHANNELS 6 Xposition Yposition Zposition Xrotation Yrotation Zrotation
	JOINT spine
	{
		OFFSET 0.000000 -0.448574 7.800591
		CHANNELS 3 Xrotation Yrotation Zrotation
		JOINT spine1
		{
			OFFSET 0.000000 -0.000002 10.136398
			CHANNELS 3 Xrotation Yrotation Zrotation
			JOINT spine2
			{
				OFFSET 0.000000 -0.000002 9.712509
				CHANNELS 3 Xrotation Yrotation Zrotation
				JOINT Neck
				{
					OFFSET 0.000000 -1.188874 24.936104
					CHANNELS 3 Xrotation Yrotation Zrotation
					JOINT Head
					{
						OFFSET 0.000000 -0.000001 7.533844
						CHANNELS 3 Xrotation Yrotation Zrotation
						End Site
						{
							OFFSET 0.000000 6.014017 18.236099
						}
					}
				}
				JOINT RightShoulder
				{
					OFFSET -4.089649 0.569455 10.488792
					CHANNELS 3 Xrotation Yrotation Zrotation
					JOINT RightArm
					{
						OFFSET 0.000000 -0.000002 13.757004
						CHANNELS 3 Xrotation Yrotation Zrotation
						JOINT RightArmRoll
						{
							OFFSET 0.000000 -0.000001 6.944778
							CHANNELS 3 Xrotation Yrotation Zrotation
							JOINT RightForeArm
							{
								OFFSET 0.000000 -0.000004 20.227692
								CHANNELS 3 Xrotation Yrotation Zrotation
								JOINT RightForeArmRoll
								{
									OFFSET 0.000000 -0.000001 7.793121
									CHANNELS 3 Xrotation Yrotation Zrotation
									JOINT RightHand
									{
										OFFSET 0.000000 -0.000003 15.639099
										CHANNELS 3 Xrotation Yrotation Zrotation
										End Site
										{
											OFFSET 0.000000 0.000000 0.100006
										}
									}
								}
							}
						}
					}
				}
				JOINT LeftShoulder
				{
					OFFSET 4.089649 0.569455 10.488792
					CHANNELS 3 Xrotation Yrotation Zrotation
					JOINT LeftArm
					{
						OFFSET 0.000000 -0.000002 13.757004
						CHANNELS 3 Xrotation Yrotation Zrotation
						JOINT LeftArmRoll
						{
							OFFSET 0.000000 -0.000001 6.944778
							CHANNELS 3 Xrotation Yrotation Zrotation
							JOINT LeftForeArm
							{
								OFFSET 0.000000 -0.000004 20.227692
								CHANNELS 3 Xrotation Yrotation Zrotation
								JOINT LeftForeArmRoll
								{
									OFFSET 0.000000 -0.000001 7.793121
									CHANNELS 3 Xrotation Yrotation Zrotation
									JOINT LeftHand
									{
										OFFSET 0.000000 -0.000003 15.639099
										CHANNELS 3 Xrotation Yrotation Zrotation
										End Site
										{
											OFFSET 0.000000 0.000000 0.100006
										}
									}
								}
							}
						}
					}
				}
			}
		}
	}
	JOINT RightUpLeg
	{
		OFFSET -6.914162 1.063580 -1.267883
		CHANNELS 3 Xrotation Yrotation Zrotation
		JOINT RightUpLegRoll
		{
			OFFSET 0.000000 -0.000003 18.337799
			CHANNELS 3 Xrotation Yrotation Zrotation
			JOINT RightLeg
			{
				OFFSET 0.000000 0.000004 -22.708496
				CHANNELS 3 Xrotation Yrotation Zrotation
				JOINT RightLegRoll
				{
					OFFSET 0.000000 -0.000004 22.782799
					CHANNELS 3 Xrotation Yrotation Zrotation
					JOINT RightFoot
					{
						OFFSET 0.000000 -0.000003 18.962898
						CHANNELS 3 Xrotation Yrotation Zrotation
						JOINT RightToeBase
						{
							OFFSET 0.000000 -0.000003 15.852005
							CHANNELS 3 Xrotation Yrotation Zrotation
							End Site
							{
								OFFSET 0.006718 0.884892 7.677017
							}
						}
					}
				}
			}
		}
	}
	JOINT LeftUpLeg
	{
		OFFSET 6.914162 1.063580 -1.267883
		CHANNELS 3 Xrotation Yrotation Zrotation
		JOINT LeftUpLegRoll
		{
			OFFSET 0.000000 -0.000003 18.337898
			CHANNELS 3 Xrotation Yrotation Zrotation
			JOINT LeftLeg
			{
				OFFSET 0.000000 -0.000004 22.708397
				CHANNELS 3 Xrotation Yrotation Zrotation
				JOINT LeftLegRoll
				{
					OFFSET 0.000000 -0.000004 22.993393
					CHANNELS 3 Xrotation Yrotation Zrotation
					JOINT LeftFoot
					{
						OFFSET 0.000000 -0.000003 18.752197
						CHANNELS 3 Xrotation Yrotation Zrotation
						JOINT LeftToeBase
						{
							OFFSET 0.000000 -0.000003 15.852005
							CHANNELS 3 Xrotation Yrotation Zrotation
							End Site
							{
								OFFSET -0.030113 0.884891 7.677017
							}
						}
					}
				}
			}
		}
	}
}
MOTION
Frames: 8
Frame Time: 0.041667
53.695000 -14.115712 94.053802 -6.943681 -0.799829 1.754225 -2.305651 0.378151 0.399907 -0.611136 0.751989 0.816366 1.033931 0.761718 0.807299 39.603158 1.612132 -2.846484 -7.000519 -6.964173 -2.233250 -15.440025 -30.100958 -17.445254 -130.784872 -190.561294 -76.765370 -0.000003 -0.000003 0.000002 74.608164 -2.565028 4.241126 -0.000006 -0.000002 -3.000001 -5.000365 -7.998729 0.000220 -13.614250 27.627799 14.714833 234.535910 179.382433 -284.010850 0.000003 0.000003 -0.000001 73.311733 -4.349254 -4.070612 -0.000001 -0.000008 3.000002 -5.000337 7.999224 -0.000112 2.725229 -175.187426 0.770266 179.999991 -0.000005 -0.945006 166.911737 0.930202 -0.884741 -0.000002 0.000003 0.203554 72.861303 5.541519 5.716183 25.456959 -7.355614 0.000001 6.835026 179.757738 6.459061 -0.000005 -0.000004 -1.417820 -8.083574 4.523198 0.473018 0.000000 0.000002 -0.212061 72.770400 -7.579281 0.108598 25.456952 7.355613 -0.000001 
53.699799 -14.111019 94.054497 -6.961303 -0.800894 1.757305 -2.300848 0.378523 0.398668 -0.601542 0.753272 0.813991 1.043524 0.762971 0.804909 39.587910 1.618986 -2.848195 -6.991228 -6.969661 -2.233105 -15.451684 -30.057911 -17.460306 -130.710054 -190.778221 -76.898942 0.000000 0.000001 -0.000000 74.965288 -2.622919 4.284044 -0.000005 -0.000002 -3.000001 -5.000361 -7.998729 0.000221 -13.645625 27.482873 14.750675 234.712921 179.498874 -284.105052 0.000003 0.000004 0.000003 73.626769 -4.259817 -4.142113 -0.000003 -0.000005 2.999998 -5.000335 7.999222 -0.000113 2.753161 -175.182550 0.791609 179.999991 -0.000005 -0.945006 166.928143 0.906883 -0.884438 -0.000002 0.000003 0.201176 72.853455 5.542671 5.712645 25.456962 -7.355615 0.000001 6.864963 179.755771 6.455225 -0.000005 -0.000004 -1.418020 -8.065089 4.523415 0.472943 -0.000000 0.000003 -0.211900 72.764143 -7.579785 0.108599 25.456955 7.355613 -0.000001 
53.696201 -14.106017 94.056396 -6.978216 -0.801313 1.759564 -2.296630 0.378780 0.397556 -0.593088 0.754220 0.811767 1.051984 0.763892 0.802674 39.581120 1.623911 -2.848899 -6.988013 -6.971634 -2.232718 -15.461229 -30.014030 -17.472298 -130.633078 -190.985763 -77.035846 0.000000 -0.000003 -0.000000 75.315068 -2.677805 4.324664 -0.000008 -0.000002 -2.999999 -5.000360 -7.998732 0.000218 -13.671044 27.356284 14.779059 234.868294 179.621107 -284.166469 0.000001 0.000003 0.000002 73.890141 -4.185279 -4.199452 -0.000002 -0.000007 2.999998 -5.000335 7.999225 -0.000106 2.774905 -175.180624 0.806726 179.999991 -0.000005 -0.946003 166.936790 0.891320 -0.883193 -0.000002 0.000003 0.199718 72.848742 5.544430 5.707543 25.456959 -7.355616 0.000001 6.891140 179.753790 6.451045 -0.000005 -0.000004 -1.418131 -8.050388 4.523964 0.472768 0.000001 0.000002 -0.211743 72.758788 -7.580328 0.109152 25.456953 7.355613 -0.000001 
53.696400 -14.104121 94.057396 -6.994355 -0.801014 1.760951 -2.293037 0.378910 0.396592 -0.585902 0.754802 0.809718 1.059165 0.764447 0.800620 39.584081 1.626564 -2.848422 -6.991596 -6.969457 -2.232025 -15.468191 -29.969296 -17.480684 -130.553752 -191.182896 -77.177087 -0.000001 -0.000001 -0.000001 75.657486 -2.729626 4.363185 -0.000004 -0.000001 -2.999999 -5.000358 -7.998730 0.000220 -13.689516 27.250962 14.798843 234.999489 179.750430 -284.191413 0.000000 0.000005 0.000001 74.095770 -4.127100 -4.240457 -0.000002 -0.000003 3.000001 -5.000332 7.999225 -0.000113 2.789637 -175.180678 0.814811 179.999991 -0.000005 -0.946003 166.936312 0.883533 -0.882998 -0.000001 0.000003 0.199313 72.847608 5.546856 5.700564 25.456959 -7.355615 0.000001 6.913024 179.750826 6.446339 -0.000005 -0.000004 -1.418120 -8.040106 4.524929 0.472481 0.000000 0.000003 -0.211591 72.754444 -7.580935 0.110167 25.456955 7.355613 -0.000001 
53.688999 -14.099917 94.055695 -7.009785 -0.799964 1.761411 -2.290029 0.378864 0.395766 -0.579881 0.754945 0.807809 1.065187 0.764564 0.798709 39.596410 1.627154 -2.846957 -7.002229 -6.962916 -2.231187 -15.473136 -29.923619 -17.486080 -130.472063 -191.371573 -77.324824 -0.000001 -0.000001 0.000001 75.994536 -2.778999 4.398771 -0.000010 0.000001 -2.999998 -5.000359 -7.998730 0.000221 -13.701224 27.166487 14.810092 235.106367 179.885818 -284.176714 0.000004 0.000007 -0.000001 74.236349 -4.086063 -4.262603 -0.000004 -0.000005 3.000001 -5.000338 7.999224 -0.000111 2.796743 -175.182727 0.815378 179.999991 -0.000005 -0.947001 166.926012 0.884468 -0.882613 -0.000001 0.000003 0.200054 72.850429 5.550122 5.691321 25.456959 -7.355614 0.000001 6.930816 179.747862 6.441240 -0.000005 -0.000004 -1.417970 -8.034122 4.526244 0.472050 -0.000000 0.000003 -0.211441 72.751111 -7.581601 0.111839 25.456957 7.355613 -0.000001 
53.689602 -14.096815 94.057495 -7.024584 -0.798218 1.760987 -2.287488 0.378616 0.395049 -0.574796 0.754630 0.805986 1.070275 0.764223 0.796892 39.616296 1.626232 -2.844846 -7.019221 -6.952519 -2.230427 -15.476509 -29.876764 -17.489247 -130.388407 -191.554445 -77.481830 -0.000001 -0.000002 -0.000000 76.327774 -2.826607 4.430850 -0.000008 -0.000001 -3.000002 -5.000361 -7.998730 0.000222 -13.707037 27.099025 14.814047 235.192537 180.024662 -284.125542 0.000003 0.000005 -0.000002 74.313353 -4.060603 -4.266093 -0.000001 -0.000003 3.000002 -5.000337 7.999225 -0.000108 2.796694 -175.187713 0.809009 179.999991 -0.000004 -0.947998 166.906478 0.895109 -0.881815 -0.000002 0.000003 0.201855 72.856870 5.554196 5.679817 25.456960 -7.355613 0.000001 6.945297 179.743900 6.435693 -0.000005 -0.000004 -1.417690 -8.031601 4.527808 0.471468 -0.000002 0.000003 -0.211291 72.748680 -7.582311 0.113967 25.456950 7.355613 -0.000001 
53.683899 -14.099217 94.087997 -7.038743 -0.795840 1.759750 -2.285386 0.378191 0.394430 -0.570595 0.753911 0.804247 1.074475 0.763479 0.795163 39.643070 1.623976 -2.842140 -7.041948 -6.938842 -2.229692 -15.478447 -29.828905 -17.490383 -130.303125 -191.731647 -77.646096 -0.000001 -0.000000 0.000001 76.656374 -2.872408 4.459500 -0.000010 0.000001 -3.000000 -5.000360 -7.998729 0.000222 -13.707948 27.046518 14.811733 235.260456 180.165992 -284.040629 0.000003 0.000002 -0.000001 74.334137 -4.048743 -4.252708 -0.000001 -0.000006 2.999996 -5.000339 7.999221 -0.000109 2.790340 -175.195677 0.796519 179.999991 -0.000005 -0.948995 166.878815 0.911571 -0.881525 -0.000002 0.000003 0.204582 72.866391 5.559022 5.666373 25.456957 -7.355615 0.000001 6.956830 179.739925 6.429856 -0.000005 -0.000004 -1.417280 -8.032152 4.529594 0.470760 0.000000 0.000003 -0.211142 72.747109 -7.583008 0.116452 25.456957 7.355614 -0.000001 
53.683800 -14.095016 94.083794 -7.052301 -0.792897 1.757743 -2.283710 0.377617 0.393902 -0.567220 0.752844 0.802589 1.077845 0.762386 0.793520 39.676104 1.620568 -2.838923 -7.069744 -6.922406 -2.228979 -15.479203 -29.780110 -17.489753 -130.216436 -191.903003 -77.818360 -0.000001 -0.000001 -0.000000 76.979408 -2.916389 4.484928 -0.000009 0.000001 -3.000002 -5.000358 -7.998730 0.000222 -13.704404 27.007142 14.804020 235.312530 180.308962 -283.925609 0.000003 0.000005 0.000000 74.305703 -4.048751 -4.224631 -0.000003 -0.000007 3.000003 -5.000337 7.999223 -0.000109 2.778539 -175.204611 0.778829 179.999991 -0.000005 -0.948995 166.844323 0.934815 -0.881511 -0.000002 0.000002 0.208097 72.878726 5.564361 5.651365 25.456962 -7.355615 0.000001 6.965734 179.734980 6.423670 -0.000005 -0.000004 -1.416780 -8.035333 4.531559 0.469945 -0.000001 0.000003 -0.210993 72.746227 -7.583764 0.119277 25.456953 7.355614 -0.000001 
